<svg xmlns="http://www.w3.org/2000/svg" width="237.626" height="216.05" viewBox="0 0 237.626 216.05">
  <g id="Gruppe_345" data-name="Gruppe 345" transform="translate(-104.236 -334.981)">
    <g id="Gruppe_313" data-name="Gruppe 313" transform="translate(104.844 335)">
      <line id="Linie_34" data-name="Linie 34" x1="1.216" y2="188.485" transform="translate(5.472)" fill="none" stroke="#866835" stroke-width="1"/>
      <line id="Linie_35" data-name="Linie 35" y2="188.485" transform="translate(167.204)" fill="none" stroke="#866835" stroke-width="1"/>
      <line id="Linie_36" data-name="Linie 36" y2="188.485" transform="translate(141.668)" fill="none" stroke="#866835" stroke-width="1"/>
      <line id="Linie_37" data-name="Linie 37" y2="188.485" transform="translate(107.619)" fill="none" stroke="#866835" stroke-width="2"/>
      <line id="Linie_38" data-name="Linie 38" x2="1.216" y2="188.485" transform="translate(22.497)" fill="none" stroke="#866835" stroke-width="1"/>
      <line id="Linie_39" data-name="Linie 39" y2="188.485" transform="translate(40.129)" fill="none" stroke="#866835" stroke-width="7"/>
      <line id="Linie_40" data-name="Linie 40" y2="188.485" transform="translate(60.802)" fill="none" stroke="#866835" stroke-width="2"/>
      <line id="Linie_41" data-name="Linie 41" y2="188.485" transform="translate(28.577)" fill="none" stroke="#866835" stroke-width="1"/>
      <line id="Linie_42" data-name="Linie 42" y2="188.485" transform="translate(183.013)" fill="none" stroke="#866835" stroke-width="3"/>
      <line id="Linie_43" data-name="Linie 43" y2="188.485" transform="translate(189.093)" fill="none" stroke="#866835" stroke-width="1"/>
      <line id="Linie_44" data-name="Linie 44" y2="188.485" transform="translate(117.347)" fill="none" stroke="#866835" stroke-width="1"/>
      <line id="Linie_45" data-name="Linie 45" x1="1.216" y2="188.485" fill="none" stroke="#866835" stroke-width="1"/>
      <line id="Linie_46" data-name="Linie 46" y2="188.485" transform="translate(119.779)" fill="none" stroke="#866835" stroke-width="1"/>
      <line id="Linie_47" data-name="Linie 47" y2="188.485" transform="translate(176.933)" fill="none" stroke="#866835" stroke-width="1"/>
      <line id="Linie_48" data-name="Linie 48" y2="188.485" transform="translate(82.082)" fill="none" stroke="#866835" stroke-width="1"/>
      <line id="Linie_49" data-name="Linie 49" y2="188.485" transform="translate(159.908)" fill="none" stroke="#866835" stroke-width="5"/>
      <line id="Linie_50" data-name="Linie 50" y2="188.485" transform="translate(125.859)" fill="none" stroke="#866835" stroke-width="1"/>
      <line id="Linie_51" data-name="Linie 51" y2="188.485" transform="translate(99.107)" fill="none" stroke="#866835" stroke-width="5"/>
      <line id="Linie_52" data-name="Linie 52" x1="1.216" y2="188.485" transform="translate(15.2)" fill="none" stroke="#866835" stroke-width="5"/>
      <line id="Linie_53" data-name="Linie 53" y2="188.485" transform="translate(69.314)" fill="none" stroke="#866835" stroke-width="7"/>
      <line id="Linie_54" data-name="Linie 54" y2="188.485" transform="translate(151.396)" fill="none" stroke="#866835" stroke-width="5"/>
      <line id="Linie_55" data-name="Linie 55" y2="188.485" transform="translate(111.267)" fill="none" stroke="#866835" stroke-width="1"/>
      <line id="Linie_56" data-name="Linie 56" y2="188.485" transform="translate(48.641)" fill="none" stroke="#866835" stroke-width="1"/>
      <line id="Linie_57" data-name="Linie 57" y2="188.485" transform="translate(131.939)" fill="none" stroke="#866835" stroke-width="4"/>
      <line id="Linie_58" data-name="Linie 58" y2="188.485" transform="translate(89.378)" fill="none" stroke="#866835" stroke-width="2"/>
      <line id="Linie_59" data-name="Linie 59" y2="188.485" transform="translate(55.937)" fill="none" stroke="#866835" stroke-width="3"/>
      <line id="Linie_60" data-name="Linie 60" y2="188.485" transform="translate(196.389)" fill="none" stroke="#866835" stroke-width="2"/>
      <line id="Linie_61" data-name="Linie 61" y2="188.485" transform="translate(230.438)" fill="none" stroke="#866835" stroke-width="1"/>
      <line id="Linie_62" data-name="Linie 62" x2="1.216" y2="188.485" transform="translate(213.413)" fill="none" stroke="#866835" stroke-width="6"/>
      <line id="Linie_63" data-name="Linie 63" y2="188.485" transform="translate(234.086)" fill="none" stroke="#866835" stroke-width="2"/>
      <line id="Linie_64" data-name="Linie 64" y2="188.485" transform="translate(204.901)" fill="none" stroke="#866835" stroke-width="1"/>
      <line id="Linie_65" data-name="Linie 65" y2="188.485" transform="translate(221.926)" fill="none" stroke="#866835" stroke-width="1"/>
    </g>
    <path id="Pfad_94" data-name="Pfad 94" d="M9.28-19.43c-4.437,0-7.134,2.61-7.134,5.684,0,2.929,1.856,4.495,7.018,5.394,4.031.7,5.278,1.653,5.278,3.306,0,2.059-1.972,3.161-4.93,3.161-3.132,0-5.1-1.392-6.119-3.6l-2,1.624C2.726-1.479,5.394.29,9.454.29c4.466,0,7.395-2.175,7.395-5.452,0-2.958-1.827-4.582-6.96-5.452-4.031-.7-5.307-1.595-5.307-3.393,0-1.827,1.682-3.248,4.727-3.248,2.813,0,4.2.986,5.365,3.509l2-1.624C15.2-18.038,12.789-19.43,9.28-19.43ZM72.906,0h2.465L67.947-19.14H65.192L57.739,0h2.436l2.03-5.307h8.671Zm-9.86-7.482,2.61-6.873.841-2.581h.058l.9,2.668,2.581,6.786Zm61.973-2.175v2.175h6.09v.667c0,3.306-2.465,4.93-5.655,4.93-4.263,0-6.525-2.871-6.525-7.685s2.61-7.685,6.5-7.685c2.668,0,4.7,1.16,5.539,3.364l2.117-1.16c-1.479-2.958-3.857-4.379-7.656-4.379-5.365,0-8.932,3.8-8.932,9.86S119.915.29,125.367.29c2.929,0,4.93-1.073,6.032-2.871L131.486,0h1.74V-9.657Zm55.506-9.483h-2.32V0h2.32Zm58.493,0h-15.66v2.175h6.67V0h2.32V-16.965h6.67Z" transform="translate(102.844 550.741)" fill="#866835"/>
  </g>
</svg>
